<svg xmlns="http://www.w3.org/2000/svg" width="280.281" height="58.555" viewBox="0 0 280.281 58.555">
  <g id="Artwork_6" data-name="Artwork 6" transform="translate(140.141 29.277)">
    <g id="Group_4031" data-name="Group 4031" transform="translate(-140.141 -29.278)">
      <path id="Path_9997" data-name="Path 9997" d="M5.04,5.037V43.581c0,.137.005.272.018.409a4.607,4.607,0,0,0,2.031,3.4,5.086,5.086,0,0,0,2.886.745,18.784,18.784,0,0,0,1.9-.128c1.939-.2,3.846-.6,5.79-.763.673-.056,1.351-.092,2.028-.092a13.036,13.036,0,0,1,3.595.449,7.317,7.317,0,0,1,3.9,2.611l.021.028.02-.028a7.317,7.317,0,0,1,3.9-2.611,13.036,13.036,0,0,1,3.6-.449c.678,0,1.355.036,2.028.092,1.944.164,3.851.562,5.79.763a18.784,18.784,0,0,0,1.9.128,5.086,5.086,0,0,0,2.886-.745,4.607,4.607,0,0,0,2.031-3.4c.013-.137.018-.272.018-.409V5.037ZM26.651,48.195a8.771,8.771,0,0,0-3.086-1.581,14.032,14.032,0,0,0-3.875-.488c-.647,0-1.337.031-2.115.1-1.086.092-2.162.257-3.205.413-.855.128-1.738.262-2.6.352-.557.056-1.191.123-1.792.123a4.049,4.049,0,0,1-2.319-.575A3.574,3.574,0,0,1,6.08,43.892c-.008-.095-.013-.2-.013-.311V27.791H26.651Zm0-21.513H6.067V6.065H26.651Zm21.693,16.9c0,.113-.005.216-.013.316a3.577,3.577,0,0,1-1.574,2.637,4.06,4.06,0,0,1-2.321.575c-.6,0-1.235-.067-1.792-.123-.865-.09-1.748-.224-2.6-.352-1.043-.156-2.119-.321-3.207-.413-.776-.064-1.466-.1-2.113-.1a14.032,14.032,0,0,0-3.875.488,8.746,8.746,0,0,0-3.086,1.581v-20.4H48.344Zm0-16.9H27.76V6.065H48.344Z" fill="#fff"/>
      <path id="Path_9998" data-name="Path 9998" d="M26.651,27.791v20.4a8.771,8.771,0,0,0-3.086-1.581,14.032,14.032,0,0,0-3.875-.488c-.647,0-1.337.031-2.115.1-1.086.092-2.162.256-3.205.413-.855.128-1.738.262-2.6.352-.557.056-1.191.123-1.792.123a4.049,4.049,0,0,1-2.319-.575A3.574,3.574,0,0,1,6.08,43.892c-.008-.095-.013-.2-.013-.311V27.791Z" fill="#fff"/>
      <rect id="Rectangle_49" data-name="Rectangle 49" width="20.584" height="20.617" transform="translate(27.76 6.065)" fill="#fff"/>
      <path id="Path_9999" data-name="Path 9999" d="M10.285,16.373c0-3.837,2.946-6.583,6.911-6.583a6.571,6.571,0,0,1,5.237,2.255l-1.891,1.746a4.1,4.1,0,0,0-3.2-1.491,3.9,3.9,0,0,0-4.073,4.073,3.9,3.9,0,0,0,4.073,4.074,4.056,4.056,0,0,0,3.2-1.51l1.891,1.746a6.541,6.541,0,0,1-5.256,2.274,6.536,6.536,0,0,1-6.892-6.584" fill="#fff"/>
      <path id="Path_10000" data-name="Path 10000" d="M32.76,42.333l1-2.219a7.487,7.487,0,0,0,4.2,1.328c1.746,0,2.455-.582,2.455-1.364,0-2.383-7.4-.746-7.4-5.474,0-2.164,1.745-3.964,5.364-3.964a8.539,8.539,0,0,1,4.42,1.127L41.889,34a7.186,7.186,0,0,0-3.528-1c-1.746,0-2.418.654-2.418,1.454,0,2.346,7.4.728,7.4,5.4,0,2.127-1.764,3.946-5.4,3.946a9.071,9.071,0,0,1-5.183-1.473" fill="#fff"/>
      <rect id="Rectangle_50" data-name="Rectangle 50" width="3.756" height="27.786" transform="translate(50.655 11.608)" fill="#fff"/>
      <path id="Path_10001" data-name="Path 10001" d="M54.411,0V8.216H50.655V3.754H3.756V8.216H0V0Z" fill="#fff"/>
      <rect id="Rectangle_51" data-name="Rectangle 51" width="3.756" height="27.786" transform="translate(0 11.608)" fill="#fff"/>
      <path id="Path_10002" data-name="Path 10002" d="M50.655,42.785v.8a5.8,5.8,0,0,1-5.687,5.826c-.5.008-.986-.005-1.471-.036-.4-.023-.809-.056-1.212-.1s-.814-.093-1.228-.152S40.228,49,39.8,48.93a31.206,31.206,0,0,0-5.189-.478h-.226l-.139,0c-.131,0-.262,0-.387.008l-.242.015-.331.021-.282.031c-.09.01-.18.018-.267.031-.18.026-.355.054-.524.087-.218.041-.426.09-.629.146l-.005,0c-.1.028-.2.057-.3.09a6.6,6.6,0,0,0-1.183.5c-.136.072-.27.152-.4.234a5.783,5.783,0,0,0-.847.675c-.064.059-.126.124-.187.19a5.075,5.075,0,0,0-.411.5c-.064.085-.126.169-.18.257a5.055,5.055,0,0,0-.326.554c-.028.054-.057.111-.082.167s-.052.113-.077.172-.06.136-.09.2-.054.144-.082.216a7.2,7.2,0,0,0-.213.695,7.2,7.2,0,0,0-.214-.695c-.028-.072-.053-.144-.082-.216s-.059-.136-.09-.2-.051-.115-.077-.172-.053-.113-.082-.167a5.055,5.055,0,0,0-.326-.554,3.061,3.061,0,0,0-.18-.257,4.925,4.925,0,0,0-.41-.5c-.062-.066-.124-.131-.188-.19a5.783,5.783,0,0,0-.847-.675c-.126-.082-.259-.162-.395-.234a6.643,6.643,0,0,0-1.184-.5c-.1-.033-.2-.062-.3-.09l-.006,0c-.2-.056-.41-.1-.629-.146-.169-.033-.344-.061-.523-.087-.088-.013-.178-.021-.267-.031l-.283-.031-.331-.021-.241-.015c-.126-.005-.257-.005-.388-.008l-.139,0H19.8a31.206,31.206,0,0,0-5.189.478c-.426.069-.844.133-1.255.189s-.822.111-1.228.152-.808.077-1.211.1c-.486.031-.976.044-1.472.036a5.8,5.8,0,0,1-5.687-5.826v-.8H0v1.436c0,5.666,2.46,9.9,9.354,9.9a38.721,38.721,0,0,0,5.6-.547,37.935,37.935,0,0,1,5.53-.545,5.337,5.337,0,0,1,3.32.948c1,.775,1.733,2.159,1.733,4.58h3.343c0-2.421.734-3.805,1.733-4.58a5.337,5.337,0,0,1,3.32-.948,37.935,37.935,0,0,1,5.53.545,38.721,38.721,0,0,0,5.6.547c6.893,0,9.353-4.232,9.353-9.9V42.785Z" fill="#fff"/>
      <path id="Path_10003" data-name="Path 10003" d="M48.344,24.232v2.449H45.895Z" fill="#dda146"/>
      <path id="Path_10004" data-name="Path 10004" d="M26.651,45.925v2.27a8.323,8.323,0,0,0-1.374-.9Z" fill="#dda146"/>
      <path id="Path_10005" data-name="Path 10005" d="M48.344,18.686v3.669l-4.326,4.326H40.349Z" fill="#dda146"/>
      <path id="Path_10006" data-name="Path 10006" d="M26.651,40.379v3.669l-2.688,2.689c-.131-.044-.265-.085-.4-.124a12.933,12.933,0,0,0-2.7-.449Z" fill="#dda146"/>
      <path id="Path_10007" data-name="Path 10007" d="M48.344,13.141V16.81l-9.872,9.872H34.8Z" fill="#dda146"/>
      <path id="Path_10008" data-name="Path 10008" d="M26.651,34.834V38.5l-7.633,7.633c-.45.015-.927.041-1.443.085-.891.077-1.777.2-2.64.328Z" fill="#dda146"/>
      <path id="Path_10009" data-name="Path 10009" d="M48.344,7.595v3.669L32.926,26.682H29.257Z" fill="#dda146"/>
      <path id="Path_10010" data-name="Path 10010" d="M26.651,29.288v3.669L12.74,46.868c-.326.046-.65.084-.973.118-.557.056-1.191.123-1.792.123a5.789,5.789,0,0,1-1.058-.087Z" fill="#dda146"/>
      <path id="Path_10011" data-name="Path 10011" d="M48,6.065,27.76,26.3V22.633L44.329,6.065Z" fill="#dda146"/>
      <path id="Path_10012" data-name="Path 10012" d="M26.271,27.791,7.582,46.48a3.562,3.562,0,0,1-1.448-2.221L22.6,27.791Z" fill="#dda146"/>
      <path id="Path_10013" data-name="Path 10013" d="M42.452,6.065,27.76,20.756V17.087L38.783,6.065Z" fill="#dda146"/>
      <path id="Path_10014" data-name="Path 10014" d="M20.725,27.791,6.067,42.449V38.78L17.056,27.791Z" fill="#dda146"/>
      <path id="Path_10015" data-name="Path 10015" d="M36.906,6.065,27.76,15.21V11.541l5.477-5.477Z" fill="#dda146"/>
      <path id="Path_10016" data-name="Path 10016" d="M15.179,27.791,6.067,36.9V33.234l5.443-5.443Z" fill="#dda146"/>
      <path id="Path_10017" data-name="Path 10017" d="M31.36,6.065l-3.6,3.6v-3.6Z" fill="#dda146"/>
      <path id="Path_10018" data-name="Path 10018" d="M9.633,27.791,6.067,31.357V27.791Z" fill="#dda146"/>
      <path id="Path_10019" data-name="Path 10019" d="M62.679,29.278c0-7.322,5.622-12.561,13.186-12.561a12.539,12.539,0,0,1,9.993,4.3L82.25,24.35A7.818,7.818,0,0,0,76.143,21.5a7.451,7.451,0,0,0-7.773,7.773,7.451,7.451,0,0,0,7.773,7.772,7.743,7.743,0,0,0,6.107-2.88L85.858,37.5A12.479,12.479,0,0,1,75.83,41.838C68.3,41.838,62.679,36.6,62.679,29.278Z" fill="#fff"/>
      <path id="Path_10020" data-name="Path 10020" d="M86.726,29.278c0-7.218,5.622-12.561,13.29-12.561,7.633,0,13.289,5.309,13.289,12.561s-5.656,12.56-13.289,12.56C92.348,41.838,86.726,36.495,86.726,29.278Zm20.889,0a7.6,7.6,0,1,0-15.2,0,7.6,7.6,0,1,0,15.2,0Z" fill="#fff"/>
      <path id="Path_10021" data-name="Path 10021" d="M116.673,17.133h11.034c7.945,0,13.394,4.789,13.394,12.145s-5.449,12.144-13.394,12.144H116.673Zm10.756,19.674c4.823,0,7.98-2.88,7.98-7.529s-3.157-7.53-7.98-7.53h-5.135V36.807Z" fill="#fff"/>
      <path id="Path_10022" data-name="Path 10022" d="M163.273,36.911v4.511H144.467V17.133h18.355v4.511H150.054v5.274H161.33V31.29H150.054v5.621Z" fill="#fff"/>
      <path id="Path_10023" data-name="Path 10023" d="M164.975,39.028l1.908-4.233a14.292,14.292,0,0,0,8.015,2.532c3.331,0,4.685-1.11,4.685-2.6,0-4.545-14.123-1.422-14.123-10.444,0-4.129,3.331-7.564,10.236-7.564a16.3,16.3,0,0,1,8.432,2.151l-1.734,4.268a13.723,13.723,0,0,0-6.732-1.908c-3.332,0-4.615,1.249-4.615,2.776,0,4.476,14.122,1.387,14.122,10.3,0,4.059-3.365,7.529-10.306,7.529C171.012,41.838,167.126,40.694,164.975,39.028Z" fill="#fff"/>
      <path id="Path_10024" data-name="Path 10024" d="M192.838,21.713h-7.773v-4.58h21.166v4.58h-7.772V41.422h-5.621Z" fill="#fff"/>
      <path id="Path_10025" data-name="Path 10025" d="M223.166,36.217H211.889l-2.152,5.205h-5.759L214.8,17.133h5.551l10.861,24.289h-5.9Zm-1.77-4.268-3.851-9.3-3.852,9.3Z" fill="#fff"/>
      <path id="Path_10026" data-name="Path 10026" d="M231.009,29.278c0-7.322,5.621-12.561,13.185-12.561a12.537,12.537,0,0,1,9.993,4.3l-3.609,3.331a7.816,7.816,0,0,0-6.106-2.845,7.451,7.451,0,0,0-7.773,7.773,7.451,7.451,0,0,0,7.773,7.772,7.741,7.741,0,0,0,6.106-2.88l3.609,3.331a12.477,12.477,0,0,1-10.028,4.337C236.63,41.838,231.009,36.6,231.009,29.278Z" fill="#fff"/>
      <path id="Path_10027" data-name="Path 10027" d="M265.951,31.88l-3.262,3.4v6.142H257.1V17.133h5.586V28.48l10.756-11.347h6.246L269.629,27.959l10.652,13.463h-6.557Z" fill="#fff"/>
    </g>
  </g>
</svg>
