<svg xmlns="http://www.w3.org/2000/svg" width="57" height="57" viewBox="0 0 57 57">
  <g id="Group_4011" data-name="Group 4011" transform="translate(-1326 -5469)">
    <circle id="Ellipse_34" data-name="Ellipse 34" cx="28.5" cy="28.5" r="28.5" transform="translate(1326 5469)" fill="#00f7fe"/>
    <path id="Icon_simple-instagram" data-name="Icon simple-instagram" d="M14.5,0c-3.939,0-4.431.018-5.978.087A10.692,10.692,0,0,0,5,.761,7.1,7.1,0,0,0,2.434,2.434,7.075,7.075,0,0,0,.761,5a10.661,10.661,0,0,0-.674,3.52C.014,10.069,0,10.561,0,14.5s.018,4.431.087,5.978A10.7,10.7,0,0,0,.761,24a7.111,7.111,0,0,0,1.672,2.569A7.091,7.091,0,0,0,5,28.239a10.705,10.705,0,0,0,3.52.674c1.547.072,2.038.087,5.978.087s4.431-.018,5.978-.087A10.73,10.73,0,0,0,24,28.239,7.41,7.41,0,0,0,28.239,24a10.7,10.7,0,0,0,.674-3.52c.073-1.547.087-2.038.087-5.978s-.018-4.431-.087-5.978A10.723,10.723,0,0,0,28.239,5a7.117,7.117,0,0,0-1.672-2.569A7.065,7.065,0,0,0,24,.761a10.667,10.667,0,0,0-3.52-.674C18.931.014,18.439,0,14.5,0Zm0,2.61c3.87,0,4.332.019,5.86.086a7.989,7.989,0,0,1,2.691.5A4.772,4.772,0,0,1,25.8,5.949a8.006,8.006,0,0,1,.5,2.691c.069,1.53.085,1.989.085,5.86s-.018,4.332-.089,5.86a8.16,8.16,0,0,1-.509,2.691,4.6,4.6,0,0,1-1.086,1.67A4.524,4.524,0,0,1,23.036,25.8a8.065,8.065,0,0,1-2.7.5c-1.539.069-1.993.085-5.871.085s-4.333-.018-5.871-.089a8.222,8.222,0,0,1-2.7-.509A4.49,4.49,0,0,1,4.224,24.7a4.4,4.4,0,0,1-1.087-1.667,8.229,8.229,0,0,1-.508-2.7c-.054-1.523-.074-1.993-.074-5.853s.019-4.333.074-5.874a8.22,8.22,0,0,1,.508-2.7A4.3,4.3,0,0,1,4.224,4.24,4.289,4.289,0,0,1,5.891,3.155a8.025,8.025,0,0,1,2.684-.509c1.541-.054,1.994-.072,5.871-.072l.054.036Zm0,4.444A7.446,7.446,0,1,0,21.946,14.5,7.445,7.445,0,0,0,14.5,7.054Zm0,12.279A4.833,4.833,0,1,1,19.333,14.5,4.832,4.832,0,0,1,14.5,19.333ZM23.981,6.761a1.74,1.74,0,1,1-1.74-1.739A1.741,1.741,0,0,1,23.981,6.761Z" transform="translate(1340 5483)" fill="#280b87"/>
  </g>
</svg>
