<svg xmlns="http://www.w3.org/2000/svg" xmlns:xlink="http://www.w3.org/1999/xlink" width="198.497" height="58" viewBox="0 0 198.497 58">
  <defs>
    <linearGradient id="linear-gradient" x1="0.234" y1="0.209" x2="0.747" y2="0.971" gradientUnits="objectBoundingBox">
      <stop offset="0" stop-color="#06f0ff"/>
      <stop offset="0.527" stop-color="#648fff"/>
      <stop offset="1" stop-color="#ed02ff"/>
    </linearGradient>
    <linearGradient id="linear-gradient-2" x1="-1.776" y1="-0.616" x2="4.19" y2="2.026" gradientUnits="objectBoundingBox">
      <stop offset="0" stop-color="#06f0ff"/>
      <stop offset="0.505" stop-color="#648fff"/>
      <stop offset="1" stop-color="#ed02ff"/>
    </linearGradient>
    <linearGradient id="linear-gradient-3" x1="-0.809" y1="-0.194" x2="3.218" y2="1.555" xlink:href="#linear-gradient-2"/>
    <linearGradient id="linear-gradient-4" x1="-3.103" y1="-0.987" x2="2.862" y2="1.654" xlink:href="#linear-gradient-2"/>
    <linearGradient id="linear-gradient-5" x1="-2.16" y1="-0.53" x2="1.867" y2="1.219" xlink:href="#linear-gradient-2"/>
  </defs>
  <g id="Group_4021" data-name="Group 4021" transform="translate(-89 287)">
    <g id="Artwork_1" data-name="Artwork 1" transform="translate(120.548 -258)">
      <g id="Group_4017" data-name="Group 4017" transform="translate(-31.548 -29)">
        <path id="Path_9797" data-name="Path 9797" d="M31.548,0,23.385,6.914V.613H13.847V14.992L0,26.72H10.695V58H13.6V55.09h0V23.811H7.937l8.819-7.47V3.523h3.718v9.669L31.548,3.813l23.611,20H49.491V55.09H33v-17.9a4.1,4.1,0,1,0-2.91,0V58H52.4V26.72H63.1Z" fill="url(#linear-gradient)"/>
        <path id="Path_9798" data-name="Path 9798" d="M305.5,357.832l-1.3-1.3a10.544,10.544,0,0,0,0,16.725l1.3-1.3a8.73,8.73,0,0,1,0-14.129Z" transform="translate(-279.083 -331.586)" fill="url(#linear-gradient-2)"/>
        <path id="Path_9799" data-name="Path 9799" d="M234.907,308.168a13.428,13.428,0,0,1,6.21-11.316l-1.315-1.315a15.237,15.237,0,0,0,0,25.261l1.315-1.315A13.429,13.429,0,0,1,234.907,308.168Z" transform="translate(-216.778 -274.857)" fill="url(#linear-gradient-3)"/>
        <path id="Path_9800" data-name="Path 9800" d="M524.166,371.961l1.3,1.3a10.544,10.544,0,0,0,0-16.725l-1.3,1.3a8.73,8.73,0,0,1,0,14.129Z" transform="translate(-487.488 -331.586)" fill="url(#linear-gradient-4)"/>
        <path id="Path_9801" data-name="Path 9801" d="M560.076,308.168a13.429,13.429,0,0,1-6.21,11.316l1.315,1.315a15.237,15.237,0,0,0,0-25.261l-1.315,1.315A13.428,13.428,0,0,1,560.076,308.168Z" transform="translate(-515.109 -274.857)" fill="url(#linear-gradient-5)"/>
      </g>
    </g>
    <g id="Group_4019" data-name="Group 4019" transform="translate(9 -306.279)">
      <path id="Path_597" data-name="Path 597" d="M15.59.435,14.268-2.65A6.227,6.227,0,0,1,9.714-.862,4.889,4.889,0,0,1,4.645-6.053a4.858,4.858,0,0,1,5.068-5.215,6.477,6.477,0,0,1,4.358,1.763L15.3-12.787c-.441-.465-2.326-1.91-5.8-1.91C4.572-14.7.63-11.44.63-5.98c0,5.436,3.893,8.717,8.864,8.717A8.013,8.013,0,0,0,15.59.435ZM33.734-5.98c0-5.46-3.942-8.741-8.962-8.741S15.811-11.44,15.811-5.98s3.942,8.717,8.962,8.717S33.734-.519,33.734-5.98Zm-4.016-.1c0,3.232-2.13,5.289-4.946,5.289s-4.946-2.057-4.946-5.289,2.13-5.264,4.946-5.264S29.718-9.285,29.718-6.078ZM51.241,2.443V-14.452H47.372v7.664c0,1.787.073,3.7.073,3.7L40.2-14.452H35.962V2.443h3.869V-5.2c0-1.787-.073-3.82-.073-3.82L47.177,2.443Zm18.364,0V-14.452H65.736v7.664c0,1.787.073,3.7.073,3.7L58.562-14.452H54.326V2.443h3.869V-5.2c0-1.787-.073-3.82-.073-3.82L65.541,2.443Zm14.25,0V-.764H76.632V-4.682h6.611V-7.841H76.632v-3.452h7v-3.159H72.69V2.443ZM100.408.435,99.086-2.65A6.227,6.227,0,0,1,94.531-.862a4.889,4.889,0,0,1-5.068-5.191,4.858,4.858,0,0,1,5.068-5.215A6.477,6.477,0,0,1,98.89-9.506l1.224-3.281c-.441-.465-2.326-1.91-5.8-1.91-4.922,0-8.864,3.257-8.864,8.717,0,5.436,3.893,8.717,8.864,8.717A8.013,8.013,0,0,0,100.408.435Zm13.173-11.753v-3.134H100.9v3.134h4.358V2.443h3.967V-11.318ZM12.9,19.455c0-2.449-1.518-3.844-3.673-4.628-.539-.22-1.787-.661-2.522-.955-.759-.294-1.714-.686-1.714-1.714s.93-1.518,2.2-1.518a5.831,5.831,0,0,1,3.771,1.714l1.689-2.767A8.32,8.32,0,0,0,7.29,7.506,6.9,6.9,0,0,0,2.834,8.853a4.758,4.758,0,0,0-1.763,3.7,4.17,4.17,0,0,0,1.322,3.257A6.6,6.6,0,0,0,4.4,17.031c.563.245,1.836.686,2.571.955s1.983.71,1.983,1.861c0,1.126-.979,1.738-2.253,1.738a6.964,6.964,0,0,1-4.407-2.13L.336,22.344a9.159,9.159,0,0,0,6,2.546C9.616,24.891,12.9,23.1,12.9,19.455ZM26,10.836V7.7H13.313v3.134h4.358V24.6h3.967V10.836Zm17.6,5.338c0-5.46-3.942-8.741-8.962-8.741s-8.962,3.281-8.962,8.741,3.942,8.717,8.962,8.717S43.6,21.634,43.6,16.174Zm-4.016-.1c0,3.232-2.13,5.289-4.946,5.289s-4.946-2.057-4.946-5.289,2.13-5.264,4.946-5.264S39.586,12.868,39.586,16.076Zm20.347,6.513L58.611,19.5a6.227,6.227,0,0,1-4.554,1.787A4.889,4.889,0,0,1,48.988,16.1a4.858,4.858,0,0,1,5.068-5.215,6.477,6.477,0,0,1,4.358,1.763L59.64,9.367c-.441-.465-2.326-1.91-5.8-1.91-4.922,0-8.864,3.257-8.864,8.717,0,5.436,3.893,8.717,8.864,8.717A8.013,8.013,0,0,0,59.933,22.589ZM76.02,24.6,69.654,14.435,75.6,7.7H70.9l-5.215,6.17V7.7H61.745V24.6h3.942V19.038l1.347-1.494L71.27,24.6ZM88.385,10.836V7.7H75.7v3.134H80.06V24.6h3.967V10.836Zm17.6,5.338c0-5.46-3.942-8.741-8.962-8.741s-8.962,3.281-8.962,8.741,3.942,8.717,8.962,8.717S105.99,21.634,105.99,16.174Zm-4.016-.1c0,3.232-2.13,5.289-4.946,5.289s-4.946-2.057-4.946-5.289,2.13-5.264,4.946-5.264S101.975,12.868,101.975,16.076ZM123.5,24.6V7.7h-3.869v7.664c0,1.787.073,3.7.073,3.7L112.455,7.7h-4.236V24.6h3.869V16.957c0-1.787-.073-3.82-.073-3.82L119.433,24.6Z" transform="translate(155 43)" fill="#fff"/>
    </g>
  </g>
</svg>
