<svg xmlns="http://www.w3.org/2000/svg" width="222.471" height="62.001" viewBox="0 0 222.471 62.001">
  <g id="Vector_Smart_Object" data-name="Vector Smart Object" transform="translate(111.235 31)">
    <g id="Group_4027" data-name="Group 4027" transform="translate(-111.235 -31)">
      <g id="Group_4025" data-name="Group 4025" transform="translate(67.357 15.041)">
        <path id="Path_9827" data-name="Path 9827" d="M62.192,15.332a1.981,1.981,0,0,0-1.65-.906A1.312,1.312,0,0,0,59.2,15.668c0,1.855,4.369,1.08,4.369,4.776a3.483,3.483,0,0,1-3.623,3.77,3.9,3.9,0,0,1-3.389-2.149l1.388-1.358a2.262,2.262,0,0,0,1.986,1.607,1.472,1.472,0,0,0,1.418-1.593c0-1.14-1.053-1.461-1.914-1.8-1.418-.584-2.455-1.3-2.455-3.009a3.206,3.206,0,0,1,3.213-3.3A4.521,4.521,0,0,1,63.2,13.842Z" transform="translate(-56.481 -12.615)" fill="#fff"/>
        <path id="Path_9828" data-name="Path 9828" d="M65.777,21.6l-.906,2.323H62.605l4.3-11.307h1.664l4.179,11.307H70.45L69.6,21.6Zm1.854-5.755H67.6l-1.213,4H69Z" transform="translate(-55.318 -12.615)" fill="#fff"/>
        <path id="Path_9829" data-name="Path 9829" d="M71.659,12.615h1.549l5.8,7.7h.03V12.907h2.147V24.141H79.636l-5.8-7.7h-.03v7.479H71.659Z" transform="translate(-53.577 -12.615)" fill="#fff"/>
        <path id="Path_9830" data-name="Path 9830" d="M88.841,20.135a4.47,4.47,0,0,1-.643,2.79,2.9,2.9,0,0,1-2.469,1.242,3.171,3.171,0,0,1-2.162-1.038l1.374-1.577a1.065,1.065,0,0,0,.832.717c1.052,0,.92-1.782.92-2.5V12.86h2.147Z" transform="translate(-51.287 -12.568)" fill="#fff"/>
        <path id="Path_9831" data-name="Path 9831" d="M94.272,24.215c-3.36,0-5.449-2.572-5.449-5.815,0-3.273,2.163-5.785,5.449-5.785s5.45,2.512,5.45,5.785C99.722,21.643,97.633,24.215,94.272,24.215Zm0-9.482a3.374,3.374,0,0,0-3.229,3.579c0,1.7.848,3.784,3.229,3.784S97.5,20.007,97.5,18.312A3.373,3.373,0,0,0,94.272,14.733Z" transform="translate(-50.276 -12.615)" fill="#fff"/>
        <path id="Path_9832" data-name="Path 9832" d="M101.1,21.6l-.906,2.323H97.926l4.295-11.307h1.666l4.179,11.307h-2.294l-.848-2.323Zm1.855-5.755h-.03l-1.211,4h2.615Z" transform="translate(-48.525 -12.615)" fill="#fff"/>
        <path id="Path_9833" data-name="Path 9833" d="M115.259,24.39l-.759-.92a4.978,4.978,0,0,1-2.732.745,5.545,5.545,0,0,1-5.45-5.815,5.459,5.459,0,1,1,10.9,0,6.491,6.491,0,0,1-1.3,3.988l1.5,1.782Zm-.95-3.77A3.807,3.807,0,0,0,115,18.342c0-1.782-1.3-3.682-3.229-3.682-2.089,0-3.229,1.972-3.229,3.871a3.328,3.328,0,0,0,3.229,3.609,2.342,2.342,0,0,0,1.153-.366l-1.811-2.089,2.22-.175Z" transform="translate(-46.911 -12.615)" fill="#fff"/>
        <path id="Path_9834" data-name="Path 9834" d="M116.29,12.86h2.149v6.165c0,1.358.116,3.272,1.942,3.272s1.942-1.914,1.942-3.272V12.86h2.149v6.589c0,2.687-1.14,4.719-4.091,4.719s-4.091-2.032-4.091-4.719Z" transform="translate(-44.994 -12.568)" fill="#fff"/>
        <path id="Path_9835" data-name="Path 9835" d="M126.572,23.875h-2.146V12.86h2.146Z" transform="translate(-43.429 -12.568)" fill="#fff"/>
        <path id="Path_9836" data-name="Path 9836" d="M127.537,12.615h1.548l5.8,7.7h.03V12.907h2.146V24.141h-1.549l-5.8-7.7h-.029v7.479h-2.147Z" transform="translate(-42.831 -12.615)" fill="#fff"/>
        <path id="Path_9837" data-name="Path 9837" d="M147.529,15.828A3.18,3.18,0,0,0,145.1,14.66c-2.06,0-3.243,1.9-3.243,3.8a3.467,3.467,0,0,0,3.229,3.71A3.36,3.36,0,0,0,147.529,21v2.556a5.777,5.777,0,0,1-2.5.658,5.553,5.553,0,0,1-5.39-5.712,5.6,5.6,0,0,1,5.433-5.888,5.124,5.124,0,0,1,2.455.643Z" transform="translate(-40.503 -12.615)" fill="#fff"/>
        <path id="Path_9838" data-name="Path 9838" d="M152.38,24.215c-3.36,0-5.449-2.572-5.449-5.815,0-3.273,2.162-5.785,5.449-5.785s5.449,2.512,5.449,5.785C157.829,21.643,155.74,24.215,152.38,24.215Zm0-9.482a3.374,3.374,0,0,0-3.229,3.579c0,1.7.848,3.784,3.229,3.784s3.229-2.089,3.229-3.784A3.374,3.374,0,0,0,152.38,14.733Z" transform="translate(-39.101 -12.615)" fill="#fff"/>
        <path id="Path_9839" data-name="Path 9839" d="M156.9,12.86h2.149v6.165c0,1.358.117,3.272,1.942,3.272s1.943-1.914,1.943-3.272V12.86h2.149v6.589c0,2.687-1.141,4.719-4.092,4.719s-4.091-2.032-4.091-4.719Z" transform="translate(-37.184 -12.568)" fill="#fff"/>
        <path id="Path_9840" data-name="Path 9840" d="M165.038,12.615h1.549l5.8,7.7h.029V12.907h2.147V24.141h-1.549l-5.8-7.7h-.029v7.479h-2.147Z" transform="translate(-35.619 -12.615)" fill="#fff"/>
        <path id="Path_9841" data-name="Path 9841" d="M178.044,23.875H175.9V14.73h-2.22V12.86h6.589v1.87h-2.22Z" transform="translate(-33.958 -12.568)" fill="#fff"/>
        <path id="Path_9842" data-name="Path 9842" d="M179,12.86h2.5l1.928,3.827,2.1-3.827h2.513l-3.477,5.96v5.054h-2.149V18.82Z" transform="translate(-32.934 -12.568)" fill="#fff"/>
        <path id="Path_9843" data-name="Path 9843" d="M61.942,38.916c-3.36,0-5.449-2.572-5.449-5.814,0-3.273,2.162-5.786,5.449-5.786s5.449,2.513,5.449,5.786C67.391,36.344,65.3,38.916,61.942,38.916Zm0-9.481a3.373,3.373,0,0,0-3.229,3.579c0,1.694.847,3.783,3.229,3.783s3.228-2.089,3.228-3.783A3.372,3.372,0,0,0,61.942,29.435Z" transform="translate(-56.493 -9.788)" fill="#fff"/>
        <path id="Path_9844" data-name="Path 9844" d="M69.029,29.432v2.425h3.112v1.87H69.029v4.85H66.882V27.561h5.463v1.871Z" transform="translate(-54.495 -9.741)" fill="#fff"/>
        <path id="Path_9845" data-name="Path 9845" d="M75.07,29.432v2.425H78.18v1.87H75.07v4.85H72.921V27.561h5.464v1.871Z" transform="translate(-53.334 -9.741)" fill="#fff"/>
        <path id="Path_9846" data-name="Path 9846" d="M81.11,38.577H78.961V27.561H81.11Z" transform="translate(-52.172 -9.741)" fill="#fff"/>
        <path id="Path_9847" data-name="Path 9847" d="M89.888,30.53a3.176,3.176,0,0,0-2.425-1.168c-2.059,0-3.243,1.9-3.243,3.8a3.467,3.467,0,0,0,3.229,3.71,3.354,3.354,0,0,0,2.439-1.17v2.557a5.792,5.792,0,0,1-2.5.657A5.553,5.553,0,0,1,82,33.2a5.6,5.6,0,0,1,5.435-5.888,5.111,5.111,0,0,1,2.454.644Z" transform="translate(-51.588 -9.788)" fill="#fff"/>
        <path id="Path_9848" data-name="Path 9848" d="M92.319,29.432v2.425h3.418v1.87H92.319v2.981h3.549v1.87h-5.7V27.561h5.7v1.871Z" transform="translate(-50.016 -9.741)" fill="#fff"/>
        <path id="Path_9849" data-name="Path 9849" d="M105.14,38.916c-3.361,0-5.45-2.572-5.45-5.814,0-3.273,2.163-5.786,5.45-5.786s5.449,2.513,5.449,5.786C110.589,36.344,108.5,38.916,105.14,38.916Zm0-9.481a3.373,3.373,0,0,0-3.229,3.579c0,1.694.848,3.783,3.229,3.783s3.229-2.089,3.229-3.783A3.373,3.373,0,0,0,105.14,29.435Z" transform="translate(-48.186 -9.788)" fill="#fff"/>
        <path id="Path_9850" data-name="Path 9850" d="M112.226,29.432v2.425h3.111v1.87h-3.111v4.85h-2.147V27.561h5.463v1.871Z" transform="translate(-46.188 -9.741)" fill="#fff"/>
        <path id="Path_9851" data-name="Path 9851" d="M122.173,29.432v2.425h3.418v1.87h-3.418v2.981h3.551v1.87h-5.7V27.561h5.7v1.871Z" transform="translate(-44.275 -9.741)" fill="#fff"/>
        <path id="Path_9852" data-name="Path 9852" d="M126.372,27.561h3.067a5.219,5.219,0,0,1,5.318,5.523,5.255,5.255,0,0,1-5.331,5.493h-3.053Zm2.147,9.146h.351c2.643,0,3.666-1.461,3.666-3.638,0-2.4-1.227-3.638-3.666-3.638h-.351Z" transform="translate(-43.055 -9.741)" fill="#fff"/>
        <path id="Path_9853" data-name="Path 9853" d="M134.6,27.561h2.149v6.165c0,1.359.117,3.273,1.942,3.273s1.943-1.914,1.943-3.273V27.561h2.149v6.59c0,2.687-1.14,4.718-4.092,4.718s-4.091-2.03-4.091-4.718Z" transform="translate(-41.472 -9.741)" fill="#fff"/>
        <path id="Path_9854" data-name="Path 9854" d="M150.554,30.53a3.176,3.176,0,0,0-2.425-1.168c-2.06,0-3.243,1.9-3.243,3.8a3.468,3.468,0,0,0,3.229,3.71,3.355,3.355,0,0,0,2.439-1.17v2.557a5.792,5.792,0,0,1-2.5.657,5.553,5.553,0,0,1-5.39-5.712,5.6,5.6,0,0,1,5.435-5.888,5.111,5.111,0,0,1,2.454.644Z" transform="translate(-39.922 -9.788)" fill="#fff"/>
        <path id="Path_9855" data-name="Path 9855" d="M153.089,36.3l-.906,2.323h-2.264l4.295-11.308h1.666l4.179,11.308h-2.294l-.848-2.323Zm1.855-5.756h-.03l-1.211,4h2.615Z" transform="translate(-38.527 -9.788)" fill="#fff"/>
        <path id="Path_9856" data-name="Path 9856" d="M162.312,38.577h-2.147V29.432h-2.221V27.561h6.59v1.871h-2.221Z" transform="translate(-36.984 -9.741)" fill="#fff"/>
        <path id="Path_9857" data-name="Path 9857" d="M166.646,38.577H164.5V27.561h2.147Z" transform="translate(-35.723 -9.741)" fill="#fff"/>
        <path id="Path_9858" data-name="Path 9858" d="M172.985,38.916c-3.36,0-5.449-2.572-5.449-5.814,0-3.273,2.163-5.786,5.449-5.786s5.45,2.513,5.45,5.786C178.435,36.344,176.346,38.916,172.985,38.916Zm0-9.481a3.373,3.373,0,0,0-3.229,3.579c0,1.694.848,3.783,3.229,3.783s3.229-2.089,3.229-3.783A3.373,3.373,0,0,0,172.985,29.435Z" transform="translate(-35.139 -9.788)" fill="#fff"/>
        <path id="Path_9859" data-name="Path 9859" d="M177.925,27.316h1.549l5.8,7.7h.029V27.608h2.147V38.843H185.9l-5.8-7.7h-.03v7.479h-2.146Z" transform="translate(-33.141 -9.788)" fill="#fff"/>
      </g>
      <g id="Group_4026" data-name="Group 4026">
        <path id="Path_9860" data-name="Path 9860" d="M52.92,52.92A29.871,29.871,0,0,0,62,31,29.877,29.877,0,0,0,52.92,9.078,29.871,29.871,0,0,0,31,0,29.874,29.874,0,0,0,9.078,9.078,29.876,29.876,0,0,0,0,31,29.87,29.87,0,0,0,9.078,52.92,29.876,29.876,0,0,0,31,62,29.874,29.874,0,0,0,52.92,52.92" fill="#cb001b"/>
        <path id="Path_9861" data-name="Path 9861" d="M43.938,45.623V29.9h6.421l-18.8-13.266V14.375h6.255V9.2H27.2v7.433L8.394,29.9h6.421V45.623H26.387V37.592h5.978v8.031ZM40.276,29.9V41.961H36.027v-8.03h-13.3v8.03H18.474V29.9h21.8M17.85,26.922l11.526-8.142L40.9,26.922Z" transform="translate(1.614 1.77)" fill="#fff"/>
        <path id="Path_9862" data-name="Path 9862" d="M26.852,3.7a.733.733,0,1,1-.734-.734.735.735,0,0,1,.734.734" transform="translate(4.882 0.571)" fill="#fff"/>
        <path id="Path_9863" data-name="Path 9863" d="M24.038,3.79a.735.735,0,1,1-.82-.638.736.736,0,0,1,.82.638" transform="translate(4.341 0.605)" fill="#fff"/>
        <path id="Path_9864" data-name="Path 9864" d="M21.255,4.226a.734.734,0,1,1-.893-.528.736.736,0,0,1,.893.528" transform="translate(3.81 0.707)" fill="#fff"/>
        <path id="Path_9865" data-name="Path 9865" d="M18.55,5.009A.734.734,0,1,1,17.6,4.6a.736.736,0,0,1,.953.413" transform="translate(3.295 0.874)" fill="#fff"/>
        <path id="Path_9866" data-name="Path 9866" d="M15.963,6.123a.734.734,0,1,1-1-.29.732.732,0,0,1,1,.29" transform="translate(2.805 1.104)" fill="#fff"/>
        <path id="Path_9867" data-name="Path 9867" d="M13.537,7.554a.734.734,0,1,1-1.027-.162.734.734,0,0,1,1.027.162" transform="translate(2.348 1.394)" fill="#fff"/>
        <path id="Path_9868" data-name="Path 9868" d="M11.31,9.277a.733.733,0,1,1-1.038-.032.734.734,0,0,1,1.038.032" transform="translate(1.931 1.739)" fill="#fff"/>
        <path id="Path_9869" data-name="Path 9869" d="M9.316,11.265a.734.734,0,1,1-1.035.1.736.736,0,0,1,1.035-.1" transform="translate(1.56 2.134)" fill="#fff"/>
        <path id="Path_9870" data-name="Path 9870" d="M7.587,13.49a.734.734,0,1,1-1.013.225.733.733,0,0,1,1.013-.225" transform="translate(1.242 2.572)" fill="#fff"/>
        <path id="Path_9871" data-name="Path 9871" d="M6.15,15.911a.734.734,0,1,1-.976.352.735.735,0,0,1,.976-.352" transform="translate(0.981 3.046)" fill="#fff"/>
        <path id="Path_9872" data-name="Path 9872" d="M5.028,18.494a.734.734,0,1,1-.924.472.734.734,0,0,1,.924-.472" transform="translate(0.782 3.55)" fill="#fff"/>
        <path id="Path_9873" data-name="Path 9873" d="M4.239,21.2a.733.733,0,1,1-.86.583.734.734,0,0,1,.86-.583" transform="translate(0.647 4.074)" fill="#fff"/>
        <path id="Path_9874" data-name="Path 9874" d="M3.794,23.978a.735.735,0,1,1-.779.688.736.736,0,0,1,.779-.688" transform="translate(0.58 4.611)" fill="#fff"/>
        <path id="Path_9875" data-name="Path 9875" d="M3.7,26.793a.735.735,0,1,1-.688.779.734.734,0,0,1,.688-.779" transform="translate(0.579 5.152)" fill="#fff"/>
        <path id="Path_9876" data-name="Path 9876" d="M3.963,29.6a.734.734,0,1,1-.583.858.735.735,0,0,1,.583-.858" transform="translate(0.647 5.689)" fill="#fff"/>
        <path id="Path_9877" data-name="Path 9877" d="M4.574,32.347a.734.734,0,1,1-.47.924.737.737,0,0,1,.47-.924" transform="translate(0.782 6.214)" fill="#fff"/>
        <path id="Path_9878" data-name="Path 9878" d="M5.525,35a.734.734,0,1,1-.353.976A.732.732,0,0,1,5.525,35" transform="translate(0.981 6.717)" fill="#fff"/>
        <path id="Path_9879" data-name="Path 9879" d="M6.8,37.509a.734.734,0,1,1-.227,1.012A.735.735,0,0,1,6.8,37.509" transform="translate(1.242 7.191)" fill="#fff"/>
        <path id="Path_9880" data-name="Path 9880" d="M8.38,39.84a.734.734,0,1,1-.1,1.034.735.735,0,0,1,.1-1.034" transform="translate(1.56 7.629)" fill="#fff"/>
        <path id="Path_9881" data-name="Path 9881" d="M10.239,41.955a.734.734,0,1,1,.032,1.036.734.734,0,0,1-.032-1.036" transform="translate(1.931 8.024)" fill="#fff"/>
        <path id="Path_9882" data-name="Path 9882" d="M12.35,43.821a.734.734,0,1,1,.162,1.024.734.734,0,0,1-.162-1.024" transform="translate(2.348 8.369)" fill="#fff"/>
        <path id="Path_9883" data-name="Path 9883" d="M14.677,45.406a.734.734,0,1,1,.291,1,.735.735,0,0,1-.291-1" transform="translate(2.805 8.659)" fill="#fff"/>
        <path id="Path_9884" data-name="Path 9884" d="M17.184,46.688a.734.734,0,1,1,.413.953.733.733,0,0,1-.413-.953" transform="translate(3.295 8.889)" fill="#fff"/>
        <path id="Path_9885" data-name="Path 9885" d="M19.833,47.646a.734.734,0,1,1,.529.894.733.733,0,0,1-.529-.894" transform="translate(3.81 9.056)" fill="#fff"/>
        <path id="Path_9886" data-name="Path 9886" d="M22.581,48.263a.734.734,0,1,1,.635.82.732.732,0,0,1-.635-.82" transform="translate(4.341 9.158)" fill="#fff"/>
        <path id="Path_9887" data-name="Path 9887" d="M25.384,48.532a.734.734,0,1,1,.734.733.735.735,0,0,1-.734-.733" transform="translate(4.881 9.192)" fill="#fff"/>
        <path id="Path_9888" data-name="Path 9888" d="M28.2,48.448a.734.734,0,1,1,.82.637.734.734,0,0,1-.82-.637" transform="translate(5.422 9.158)" fill="#fff"/>
        <path id="Path_9889" data-name="Path 9889" d="M30.982,48.011a.734.734,0,1,1,.893.528.733.733,0,0,1-.893-.528" transform="translate(5.953 9.056)" fill="#fff"/>
        <path id="Path_9890" data-name="Path 9890" d="M33.686,47.229a.734.734,0,1,1,.953.413.734.734,0,0,1-.953-.413" transform="translate(6.468 8.889)" fill="#fff"/>
        <path id="Path_9891" data-name="Path 9891" d="M36.273,46.113a.733.733,0,1,1,1,.291.732.732,0,0,1-1-.291" transform="translate(6.958 8.659)" fill="#fff"/>
        <path id="Path_9892" data-name="Path 9892" d="M38.7,44.683a.734.734,0,1,1,1.024.162.732.732,0,0,1-1.024-.162" transform="translate(7.415 8.369)" fill="#fff"/>
        <path id="Path_9893" data-name="Path 9893" d="M40.926,42.961a.734.734,0,1,1,1.038.031.738.738,0,0,1-1.038-.031" transform="translate(7.832 8.024)" fill="#fff"/>
        <path id="Path_9894" data-name="Path 9894" d="M42.92,40.972a.735.735,0,1,1,1.035-.1.735.735,0,0,1-1.035.1" transform="translate(8.202 7.629)" fill="#fff"/>
        <path id="Path_9895" data-name="Path 9895" d="M44.649,38.748a.734.734,0,1,1,1.013-.227.735.735,0,0,1-1.013.227" transform="translate(8.521 7.191)" fill="#fff"/>
        <path id="Path_9896" data-name="Path 9896" d="M46.086,36.326a.734.734,0,1,1,.977-.352.734.734,0,0,1-.977.352" transform="translate(8.781 6.717)" fill="#fff"/>
        <path id="Path_9897" data-name="Path 9897" d="M47.209,33.743a.734.734,0,1,1,.924-.471.735.735,0,0,1-.924.471" transform="translate(8.981 6.213)" fill="#fff"/>
        <path id="Path_9898" data-name="Path 9898" d="M48,31.04a.734.734,0,1,1,.857-.584A.734.734,0,0,1,48,31.04" transform="translate(9.115 5.689)" fill="#fff"/>
        <path id="Path_9899" data-name="Path 9899" d="M48.442,28.259a.734.734,0,1,1,.779-.688.735.735,0,0,1-.779.688" transform="translate(9.183 5.152)" fill="#fff"/>
        <path id="Path_9900" data-name="Path 9900" d="M48.534,25.444a.734.734,0,1,1,.688-.777.734.734,0,0,1-.688.777" transform="translate(9.183 4.611)" fill="#fff"/>
        <path id="Path_9901" data-name="Path 9901" d="M48.273,22.64a.733.733,0,1,1,.583-.858.735.735,0,0,1-.583.858" transform="translate(9.115 4.074)" fill="#fff"/>
        <path id="Path_9902" data-name="Path 9902" d="M47.662,19.891a.734.734,0,1,1,.47-.926.735.735,0,0,1-.47.926" transform="translate(8.981 3.55)" fill="#fff"/>
        <path id="Path_9903" data-name="Path 9903" d="M46.712,17.24a.734.734,0,1,1,.352-.976.733.733,0,0,1-.352.976" transform="translate(8.782 3.046)" fill="#fff"/>
        <path id="Path_9904" data-name="Path 9904" d="M45.437,14.728a.734.734,0,1,1,.225-1.013.735.735,0,0,1-.225,1.013" transform="translate(8.521 2.572)" fill="#fff"/>
        <path id="Path_9905" data-name="Path 9905" d="M43.856,12.4a.735.735,0,1,1,.1-1.035.735.735,0,0,1-.1,1.035" transform="translate(8.203 2.134)" fill="#fff"/>
        <path id="Path_9906" data-name="Path 9906" d="M42,10.281a.734.734,0,1,1-.032-1.036A.734.734,0,0,1,42,10.281" transform="translate(7.832 1.739)" fill="#fff"/>
        <path id="Path_9907" data-name="Path 9907" d="M39.886,8.417a.734.734,0,1,1-.162-1.025.732.732,0,0,1,.162,1.025" transform="translate(7.415 1.394)" fill="#fff"/>
        <path id="Path_9908" data-name="Path 9908" d="M37.559,6.83a.734.734,0,1,1-.29-1,.734.734,0,0,1,.29,1" transform="translate(6.958 1.104)" fill="#fff"/>
        <path id="Path_9909" data-name="Path 9909" d="M35.052,5.549a.734.734,0,1,1-.413-.953.734.734,0,0,1,.413.953" transform="translate(6.468 0.874)" fill="#fff"/>
        <path id="Path_9910" data-name="Path 9910" d="M32.4,4.591a.734.734,0,1,1-.527-.893.733.733,0,0,1,.527.893" transform="translate(5.953 0.707)" fill="#fff"/>
        <path id="Path_9911" data-name="Path 9911" d="M29.655,3.973a.734.734,0,1,1-.635-.819.732.732,0,0,1,.635.819" transform="translate(5.422 0.605)" fill="#fff"/>
      </g>
    </g>
  </g>
</svg>
