<svg xmlns="http://www.w3.org/2000/svg" width="57" height="57" viewBox="0 0 57 57">
  <g id="Group_4010" data-name="Group 4010" transform="translate(-1244 -5469)">
    <circle id="Ellipse_33" data-name="Ellipse 33" cx="28.5" cy="28.5" r="28.5" transform="translate(1244 5469)" fill="#00f7fe"/>
    <path id="Icon_simple-twitter" data-name="Icon simple-twitter" d="M26.8,5.968a11.19,11.19,0,0,1-3.161.867,5.548,5.548,0,0,0,2.42-3.047,11.372,11.372,0,0,1-3.5,1.325,5.5,5.5,0,0,0-9.524,3.758,5.634,5.634,0,0,0,.142,1.258A15.593,15.593,0,0,1,1.835,4.393,5.4,5.4,0,0,0,1.09,7.162a5.506,5.506,0,0,0,2.448,4.583,5.488,5.488,0,0,1-2.493-.689v.068a5.509,5.509,0,0,0,4.415,5.4,5.556,5.556,0,0,1-2.475.1,5.524,5.524,0,0,0,5.152,3.824A11.042,11.042,0,0,1,1.309,22.8,11.685,11.685,0,0,1,0,22.725,15.661,15.661,0,0,0,8.456,25.2,15.551,15.551,0,0,0,24.121,9.547c0-.234,0-.47-.017-.7a11.118,11.118,0,0,0,2.753-2.851L26.8,5.968Z" transform="translate(1259.072 5483.347)" fill="#280b87"/>
  </g>
</svg>
